<svg width="32" height="32" viewBox="0 0 32 32" xmlns="http://www.w3.org/2000/svg">
  <rect width="32" height="32" fill="#c3c3c3" stroke="#808080"/>
  <rect x="4" y="4" width="24" height="24" fill="#000000" stroke="#404040"/>
  <rect x="6" y="6" width="20" height="20" fill="#c3c3c3"/>
  
  <!-- Screen -->
  <rect x="8" y="8" width="16" height="4" fill="#ffffff" stroke="#000000"/>
  
  <!-- Buttons -->
  <rect x="8" y="14" width="3" height="2" fill="#e0e0e0" stroke="#808080"/>
  <rect x="12" y="14" width="3" height="2" fill="#e0e0e0" stroke="#808080"/>
  <rect x="16" y="14" width="3" height="2" fill="#e0e0e0" stroke="#808080"/>
  <rect x="20" y="14" width="3" height="2" fill="#e0e0e0" stroke="#808080"/>
  
  <rect x="8" y="17" width="3" height="2" fill="#e0e0e0" stroke="#808080"/>
  <rect x="12" y="17" width="3" height="2" fill="#e0e0e0" stroke="#808080"/>
  <rect x="16" y="17" width="3" height="2" fill="#e0e0e0" stroke="#808080"/>
  <rect x="20" y="17" width="3" height="2" fill="#e0e0e0" stroke="#808080"/>
  
  <rect x="8" y="20" width="3" height="2" fill="#e0e0e0" stroke="#808080"/>
  <rect x="12" y="20" width="3" height="2" fill="#e0e0e0" stroke="#808080"/>
  <rect x="16" y="20" width="3" height="2" fill="#e0e0e0" stroke="#808080"/>
  <rect x="20" y="20" width="3" height="2" fill="#e0e0e0" stroke="#808080"/>
</svg>
