<svg width="32" height="32" viewBox="0 0 32 32" xmlns="http://www.w3.org/2000/svg">
  <rect width="32" height="32" fill="#c3c3c3" stroke="#808080"/>
  <rect x="4" y="4" width="24" height="24" fill="#c0c0c0" stroke="#000000"/>
  
  <!-- Grid -->
  <g stroke="#808080" stroke-width="0.5">
    <line x1="8" y1="8" x2="24" y2="8"/>
    <line x1="8" y1="12" x2="24" y2="12"/>
    <line x1="8" y1="16" x2="24" y2="16"/>
    <line x1="8" y1="20" x2="24" y2="20"/>
    <line x1="8" y1="24" x2="24" y2="24"/>
    
    <line x1="8" y1="8" x2="8" y2="24"/>
    <line x1="12" y1="8" x2="12" y2="24"/>
    <line x1="16" y1="8" x2="16" y2="24"/>
    <line x1="20" y1="8" x2="20" y2="24"/>
    <line x1="24" y1="8" x2="24" y2="24"/>
  </g>
  
  <!-- Mines -->
  <circle cx="10" cy="10" r="1" fill="#000000"/>
  <circle cx="18" cy="14" r="1" fill="#000000"/>
  <circle cx="14" cy="22" r="1" fill="#000000"/>
  
  <!-- Numbers -->
  <text x="22" y="11" font-family="sans-serif" font-size="3" fill="#0000ff">1</text>
  <text x="14" y="19" font-family="sans-serif" font-size="3" fill="#008000">2</text>
  
  <!-- Flag -->
  <rect x="21" y="21" width="1" height="2" fill="#ff0000"/>
  <polygon points="22,21 22,22 23,21.5" fill="#ff0000"/>
</svg>
